<svg data-name="Component 744 – 35" xmlns="http://www.w3.org/2000/svg" width="504.29" height="442.826" viewBox="0 0 504.29 442.826">
    <defs>
        <clipPath id="d1qjbk4w2a">
            <path data-name="Rectangle 28224" style="fill:none" d="M0 0h368.168v328.225H0z"/>
        </clipPath>
        <clipPath id="v0gra5xvnc">
            <rect data-name="Rectangle 28229" width="71.492" height="141.309" rx="8" style="fill:none"/>
        </clipPath>
        <clipPath id="bcf3pyditd">
            <path data-name="Path 65751" d="M641.517 638.1v9.227a5.919 5.919 0 0 0 5.919 5.919h59.654a5.919 5.919 0 0 0 5.919-5.919V638.1zm5.919-126.163a5.919 5.919 0 0 0-5.919 5.919v6.469h71.492v-6.469a5.919 5.919 0 0 0-5.919-5.919z" transform="translate(-641.517 -511.937)" style="fill:#032541"/>
        </clipPath>
        <clipPath id="2eu8uxsfme">
            <path data-name="Rectangle 28241" d="M22.45 0h26.591a22.451 22.451 0 0 1 22.451 22.451v96.408a22.45 22.45 0 0 1-22.45 22.45H22.451A22.451 22.451 0 0 1 0 118.858V22.45A22.45 22.45 0 0 1 22.45 0z" style="fill:none"/>
        </clipPath>
        <clipPath id="smysp8m7ef">
            <path data-name="Rectangle 28242" style="fill:none" d="M0 0h55.201v91.388H0z"/>
        </clipPath>
        <clipPath id="n71x4bgarg">
            <path data-name="Path 65758" d="M531.431 760.421c-1.337.816.458 7.28-.363 10.78a240.159 240.159 0 0 1-10.1 33.807c-5.554 14.306-9.863 55.04-8.561 66.708.8 7.149-7.6 38.3-11.444 52.022h71.986c.286-14 1.336-39.335 5.192-46.93 7.515-14.806 19.383-40.862 19.383-40.862l-49.346.007s.029-.31-.383-3.914a37.621 37.621 0 0 0-9.775-21.385s-.33-18.45 1.609-29.625c1.746-10.061-2.845-20.977-6.946-20.975a2.379 2.379 0 0 0-1.254.367" transform="translate(-500.966 -760.055)" style="fill:none"/>
        </clipPath>
        <clipPath id="dbzqlqvr0h">
            <path data-name="Path 65760" d="M555.834 760.055a2.318 2.318 0 0 0-.938.214 2.719 2.719 0 0 0-.286.152c-.389.237-.513.953-.513 1.935 0 1.714.376 4.237.375 6.443a10.8 10.8 0 0 1-.225 2.4 240.172 240.172 0 0 1-10.1 33.807c-4.876 12.56-8.792 45.489-8.795 61.237a51.619 51.619 0 0 0 .234 5.471v.022a9.362 9.362 0 0 1 .051 1.042c.01 3.649-1.346 10.826-3.2 18.9H597.4c.78-5.571 2-11.093 3.906-14.859l.009-.017C608.837 862 620.7 835.947 620.7 835.947l-49.346.007a.151.151 0 0 0 0-.018c0-.109-.023-.741-.383-3.894a37.622 37.622 0 0 0-9.775-21.385s-.021-1.2-.021-3.17c0-5.763.185-18.128 1.63-26.455l.025-.146c1.356-8.109-1.376-16.735-4.63-19.73l-.007-.007-.01-.009-.011-.01-.011-.009-.008-.007-.005-.005-.006-.006-.008-.007-.01-.009a3.474 3.474 0 0 0-2.242-1.009h-.03" transform="translate(-532.444 -760.055)" style="fill:none"/>
        </clipPath>
        <clipPath id="x4yz05lkyi">
            <path data-name="Path 65762" d="M614.583 766.048a9.267 9.267 0 0 0-.013.514c0 1.714.376 4.237.375 6.443v.111a2.718 2.718 0 0 0 2.827.84c1.7-.248 1.938-2.048 1.123-4.228-.741-1.982-2.18-3.962-3.5-3.962a1.331 1.331 0 0 0-.81.282" transform="translate(-614.57 -765.766)" style="fill:none"/>
        </clipPath>
        <clipPath id="iskteto7dj">
            <path data-name="Path 65767" d="M874.607 854.488c.313 4.458 9.54-.445 9.54-.445l.565 16.666s18.828-26.229 9.413-32.563a4.456 4.456 0 0 0-2.539-.721c-6.669 0-17.385 11.276-16.979 17.063" transform="translate(-874.595 -837.425)" style="fill:none"/>
        </clipPath>
        <clipPath id="ydam3y291k">
            <path data-name="Path 65792" d="M880.248 874.092c-2.727 4.415-1.008 6.031 2.9 3.627 4.292-2.64 4.9-4.665 3.113-6.3a1.923 1.923 0 0 0-1.333-.464 6.239 6.239 0 0 0-4.683 3.138" transform="translate(-878.919 -870.954)" style="fill:none"/>
        </clipPath>
        <clipPath id="aaz640qosl">
            <path data-name="Path 65795" d="M907.772 799.457c1.853 1.779 6.794-.707 5.943-4.2-.351-1.438-1.1-2-1.959-2-2.433 0-5.811 4.442-3.984 6.2" transform="translate(-907.251 -793.261)" style="fill:none"/>
        </clipPath>
        <clipPath id="0igi4ok79m">
            <path data-name="Path 65798" d="M904.579 746.974c1.949 1.689 5.533-.086 3.939-2.546a3.043 3.043 0 0 0-2.6-1.431c-2 0-3.742 1.9-1.341 3.977" transform="translate(-903.413 -742.997)" style="fill:none"/>
        </clipPath>
        <clipPath id="2sc4j97k5n">
            <path data-name="Rectangle 28261" style="fill:none" d="M0 0h80.381v47.508H0z"/>
        </clipPath>
        <clipPath id="r8zpph9sro">
            <path data-name="Path 65815" d="m713.9 345.231-.529 1.535a6.6 6.6 0 0 0-6.225 4.447l-6.631 19.245a2.3 2.3 0 0 0 1.423 2.919l8.126 2.8a2.3 2.3 0 0 0 2.919-1.423l6.631-19.245a6.593 6.593 0 0 0-1.671-6.91l.609-1.765a2.46 2.46 0 0 0-1.524-3.127 2.458 2.458 0 0 0-3.127 1.524" transform="translate(-700.388 -343.572)" style="fill:#f8bebe"/>
        </clipPath>
        <clipPath id="jvyj0g0t3p">
            <path data-name="Rectangle 28273" style="fill:none" d="M0 0h167.084v219.719H0z"/>
        </clipPath>
        <clipPath id="5royo5cv6q">
            <path data-name="Path 65842" d="M763.351 680.968c-1.031 3.169 1.472 8.269 1.472 8.269s8.739 15.9 12.084 20.121S787.912 735.5 789.67 738.6s8.975 20.44 6.893 25.992c-.919 2.449-2.8 3.6-8.344 1.107s-12.1-16.142-18.256-21.482c-7.547-6.549-7.433-.53-5.988 2.551 2.208 4.708 8.754 17.324 13.508 27.947s22.238 38.421 31.756 48.2c6.536 6.715 18.293 43.755 25.016 66.3H904c-6.829-13.933-16.552-33.515-21.53-42.36-8.162-14.5-18.7-40.925-19.527-50.715-.723-8.551-13.257-41.7-16.6-50.422a11.857 11.857 0 0 0-2.335-3.773c-4.011-4.374-14.753-16-17.567-18.231-3.055-2.418-4.241-1.475-4.486-1.208a.081.081 0 0 1-.05.061.544.544 0 0 1 .05-.061c.057-.2-.141-1-3.26-4.234-3.965-4.112-12.378-4.306-12.378-4.306a32.368 32.368 0 0 1-4.575-2.726 8.691 8.691 0 0 0-6.163-1.554c-1.445.109-2.608.219-3.969-1.248-7.075-7.622-16.389-16.314-17.314-17.661-1.132-1.651-7.9-10.373-10.25-10.372a.7.7 0 0 0-.7.566" transform="translate(-763.102 -680.402)" style="fill:none"/>
        </clipPath>
        <clipPath id="ogzrzcfkvr">
            <path data-name="Path 65845" d="M768.89 686.819c1.632 2.162 3.215 3.324 5.246.737a30.629 30.629 0 0 0-5.206-5.117c-1.3.568-1.364 2.628-.041 4.381" transform="translate(-767.927 -682.438)" style="fill:none"/>
        </clipPath>
        <clipPath id="fkv4tbu1ms">
            <path data-name="Path 65848" d="M765.822 918.548c.261 2.426 2.345 7.524 4.715 7.167 2.428-.365 2.175-1.79.375-4.862-1.2-2.048-3.178-3.468-4.287-3.468-.554 0-.89.355-.8 1.163" transform="translate(-765.808 -917.385)" style="fill:none"/>
        </clipPath>
        <filter id="2dsjt74yjb" x="216.102" y="58.786" width="55.302" height="33.631" filterUnits="userSpaceOnUse">
            <feOffset dy="3"/>
            <feGaussianBlur stdDeviation="3" result="blur"/>
            <feFlood flood-opacity=".161"/>
            <feComposite operator="in" in2="blur"/>
            <feComposite in="SourceGraphic"/>
        </filter>
    </defs>
    <g data-name="Group 77480">
        <g data-name="Group 77096">
            <g data-name="Group 77107">
                <path data-name="Path 65238" d="M68.544 296.843c-58.188-65.215-91.184-174.4-50.51-213.554 42.251-40.67 122.537 34.131 234.159-6.237C329.4 49.132 338.446-3.815 385.85.213c23.111 1.964 46.455 16.715 66.394 39.145 35.472 39.9 59.549 104.318 49.908 162.184C482.5 319.5 324.711 398.375 200.906 374.181c-75.2-14.7-120.479-64.021-132.362-77.338" transform="translate(0 64.276)" style="fill:#f0fbfd"/>
            </g>
        </g>
        <text data-name="****" transform="translate(461.73 273.135)" style="font-size:9px;font-family:Poppins-Regular,Poppins;fill:#fff"><tspan x="0" y="0">****</tspan></text>
        <g data-name="Group 77100" style="opacity:.2;mix-blend-mode:multiply;isolation:isolate">
            <g data-name="Group 77099">
                <g data-name="Group 77109">
                    <path data-name="Path 65239" d="M707.924 1351.034c0 5.855-56.049 10.6-125.188 10.6s-125.188-4.747-125.188-10.6 56.049-10.6 125.188-10.6 125.188 4.747 125.188 10.6" transform="translate(-316.652 -976.374)" style="fill:#2d507f"/>
                </g>
            </g>
        </g>
        <g data-name="Group 77392">
            <g data-name="Group 77467">
                <path data-name="Path 65717" d="M376.877 497.676a1.6 1.6 0 0 0-1.6 1.605l.035 18.021a1.6 1.6 0 0 0 1.606 1.6z" transform="translate(-196.891 -377.19)" style="fill:#032541"/>
                <path data-name="Path 65718" d="M376.877 876.312a1.822 1.822 0 0 0-1.6 1.983l.04 10.466a1.821 1.821 0 0 0 1.607 1.978z" transform="translate(-196.891 -655.997)" style="fill:#333"/>
                <path data-name="Path 65719" d="m516.218 411.056-105.325.092c-16.272.014-29.471-9.447-29.488-28.423l-.255-317.547c-.016-18.974 13.807-25.315 30.078-25.33h110.753c16.272-.014 23.4 6.214 23.42 25.19l.255 317.543c.017 18.976-13.165 28.46-29.438 28.475" transform="translate(-201.215 -39.847)" style="fill:#144166"/>
                <path data-name="Path 65720" d="M1004.564 351.611a1.6 1.6 0 0 1 1.608 1.6l.052 18.02a1.6 1.6 0 0 1-1.6 1.609z" transform="translate(-660.264 -269.635)" style="fill:#032541"/>
                <path data-name="Path 65721" d="M1004.3 261.4a1.6 1.6 0 0 1 1.607 1.6l.052 18.022a1.6 1.6 0 0 1-1.6 1.608z" transform="translate(-660.069 -203.206)" style="fill:#032541"/>
                <path data-name="Path 65722" d="M394.121 423.2V105.181a10.554 10.554 0 0 1 10.554-10.554h136.343a10.554 10.554 0 0 1 10.555 10.554V423.2a10.554 10.554 0 0 1-10.555 10.554H404.675a10.554 10.554 0 0 1-10.554-10.554" transform="translate(-210.766 -80.406)" style="fill:#fff"/>
            </g>
        </g>
        <g data-name="Group 77397">
            <g data-name="Group 77483">
                <path data-name="Path 65857" d="M0 0h116.789v199.387H0z" transform="rotate(-89.54 193.444 58.492)" style="fill:#144166"/>
                <path data-name="Path 65859" d="m134.253 141.859.057-7.176 199.387 1.595-.057 7.176z"/>
                <path data-name="Rectangle 28214" transform="rotate(-89.54 175.782 35.386)" style="fill:#f4f4f4" d="M0 0h3.872v188.668H0z"/>
                <path data-name="Rectangle 28215" transform="rotate(-89.54 171.765 31.34)" style="fill:#f4f4f4" d="M0 0h3.873v188.668H0z"/>
                <path data-name="Rectangle 28216" transform="rotate(-89.556 179.876 39.558)" style="fill:#f4f4f4" d="M0 0h3.873v46.558H0z"/>
                <path data-name="Rectangle 28217" transform="rotate(-89.54 211.098 8.474)" style="fill:#f4f4f4" d="M0 0h3.873v45.826H0z"/>
                <path data-name="Path 65724" d="M419.183 862.591c-.7-.637.007-.534.847-1.385 2.057-1.009-.233-1.842-.682-2.885.478-1.12 2.05 2.006 2.383 2.09l-.307.247c.272.053-2.241 1.859-2.242 1.934m-6.61-.159-2.269-2.147.271-.286-.064-.06c.34-.107 2.075-2.911 2.422-1.784-2.932 2.871-1.7 1.858.012 3.884z" transform="translate(-222.683 -642.744)" style="fill:#f4f4f4"/>
                <path data-name="Path 65725" d="M403.794 670.682c.049-.068-201.873-1.393-199.449-1.648.138-2.629.7-120.51 1.032-116.818 4.14.133 201.684 1.367 199.39 1.648-.08 2.407-.778 116.823-.973 116.818M204.483 669l199.244 1.543.9-116.648-199.244-1.543z" transform="translate(-71.009 -417.601)" style="fill:#e3e3e3"/>
                <path data-name="Path 65726" d="M232.878 560.33a2.028 2.028 0 0 1-.032 4.055 2.028 2.028 0 0 1 .032-4.055" transform="translate(-90.559 -423.638)" style="fill-rule:evenodd;fill:rgba(255,255,255,.87)"/>
                <path data-name="Path 65727" d="M261.592 560.552a2.028 2.028 0 0 1-.031 4.055 2.028 2.028 0 0 1 .031-4.055" transform="translate(-111.702 -423.801)" style="fill:#cb444a;fill-rule:evenodd"/>
                <path data-name="Path 65728" d="M291.24 560.783a2.027 2.027 0 1 1-.213 4.048 2.027 2.027 0 0 1 .213-4.048m-.05.36a1.667 1.667 0 1 0 .124 3.33 1.667 1.667 0 0 0-.124-3.33" transform="translate(-133.494 -423.972)" style="fill:#17ae7b;fill-rule:evenodd"/>
                <path data-name="Path 65731" d="m394.4 935.287-3.318-.04c-.5-.683 3.926-.544 3.318.04m-5.347-.042-3.318-.039c-.5-.682 3.926-.544 3.318.039m-5.347-.041-3.318-.039c-.5-.683 3.926-.544 3.318.039m-5.347-.041-3.318-.039c-.5-.683 3.926-.544 3.318.039m-5.347-.041-3.318-.039c-.5-.683 3.926-.544 3.318.039m-5.347-.041-3.318-.039c-.5-.683 3.926-.544 3.318.039m-5.347-.042c-1.3.556-.4-2.652-.632-3.062 1.011-.173-.152 2.744.634 2.767v.295m34.229-.039c-.84.492-.21-3.165-.375-3.321.817-.485.213 3.174.375 3.321m-34.449-5.05c-.835.491-.205-3.168-.369-3.321.807-.482.209 3.179.369 3.321m34.487-.292c-.84.492-.21-3.165-.375-3.321.817-.485.213 3.174.375 3.321m-34.442-5.058c-.835.491-.205-3.167-.369-3.321.807-.482.209 3.179.369 3.321m34.487-.292c-.84.492-.21-3.165-.375-3.321.817-.485.213 3.174.375 3.321m-34.446-5.054c-.835.491-.205-3.168-.369-3.321.807-.482.209 3.179.369 3.321m34.487-.292c-.84.492-.21-3.165-.375-3.321.817-.485.213 3.174.375 3.321m-34.446-5.055c-.835.491-.205-3.167-.369-3.321.807-.482.209 3.179.369 3.321m34.487-.292c-.84.492-.21-3.165-.375-3.321.817-.485.213 3.174.375 3.321m-34.446-5.054c-.835.49-.205-3.168-.369-3.321.807-.482.209 3.179.369 3.321m34.487-.292c-.84.492-.21-3.165-.375-3.321.817-.485.213 3.174.375 3.321m-34.446-5.055c-.835.491-.205-3.167-.369-3.321.807-.482.209 3.179.369 3.321m34.487-.292c-.839.492-.21-3.165-.375-3.321.817-.485.213 3.174.375 3.321m-34.446-5.055c-.328-.039-.464.115-.4-.375-.67-2.407 2.632-.884 3.517-1.258.466.807-2.95.216-3.1.374zm34.487-.292c-.629.13-.353-.405-.406-.7.015 0-2.147-.028-2.207-.031-.332-.784 1.762-.229 2.51-.365.3-.276.029.778.1 1.1m-4.642-.735-3.318-.039c-.5-.683 3.926-.544 3.318.039m-5.35-.042-3.318-.039c-.5-.683 3.926-.544 3.318.039m-5.347-.041-3.318-.039c-.5-.683 3.926-.544 3.318.039m-5.347-.041-3.318-.039c-.5-.683 3.926-.544 3.318.039m-5.347-.042-3.315-.039c-.5-.683 3.923-.544 3.315.039" transform="translate(-186.82 -670.881)" style="fill:#a8a8a8"/>
            </g>
        </g>
        <g data-name="Group 77404" transform="translate(82 24.809)" style="clip-path:url(#d1qjbk4w2a)">
            <path data-name="Path 65744" d="M1044.7 702.2a6.493 6.493 0 1 1-6.493 6.493 6.5 6.5 0 0 1 6.493-6.493" transform="translate(-767.039 -552.91)" style="fill-rule:evenodd;fill:#f4f4f4"/>
            <path data-name="Path 65745" d="M997.866 213.552a16.2 16.2 0 0 1-2.8-.244.2.2 0 0 1-.165-.239.208.208 0 0 1 .239-.167 15.618 15.618 0 0 0 2.871.238h.03a.205.205 0 0 1 .208.2.209.209 0 0 1-.2.208zm2.687-.228a.206.206 0 0 1-.167-.326.193.193 0 0 1 .131-.082 15.591 15.591 0 0 0 2.811-.762.205.205 0 0 1 .263.117.221.221 0 0 1 .014.071.2.2 0 0 1-.131.195 15.919 15.919 0 0 1-2.885.784h-.036m-7.881-.65a.274.274 0 0 1-.068-.011 16.252 16.252 0 0 1-2.718-1.251.206.206 0 0 1-.074-.282.213.213 0 0 1 .282-.074 15.445 15.445 0 0 0 2.646 1.217.211.211 0 0 1 .135.192.218.218 0 0 1-.011.071.207.207 0 0 1-.195.137m13-1.2a.2.2 0 0 1-.178-.1.2.2 0 0 1-.019-.159.2.2 0 0 1 .1-.124 15.618 15.618 0 0 0 2.38-1.678.213.213 0 0 1 .291.022.22.22 0 0 1 .049.131.2.2 0 0 1-.074.159 15.76 15.76 0 0 1-2.443 1.722.188.188 0 0 1-.1.027M987.92 210a.2.2 0 0 1-.129-.046 16.184 16.184 0 0 1-2.131-2.1.21.21 0 0 1-.047-.153.213.213 0 0 1 .071-.137.21.21 0 0 1 .291.025 15.714 15.714 0 0 0 2.075 2.045.205.205 0 0 1 .028.288.2.2 0 0 1-.159.077m21.943-1.999a.2.2 0 0 1-.132-.05.2.2 0 0 1-.071-.14.193.193 0 0 1 .047-.148 15.521 15.521 0 0 0 1.672-2.388.211.211 0 0 1 .28-.076.2.2 0 0 1 .1.183.213.213 0 0 1-.028.1 16.2 16.2 0 0 1-1.714 2.449.21.21 0 0 1-.159.071m-25.5-2.106a.206.206 0 0 1-.178-.1 15.9 15.9 0 0 1-1.289-2.7.206.206 0 0 1 .005-.156.216.216 0 0 1 .118-.107.21.21 0 0 1 .263.124 15.671 15.671 0 0 0 1.253 2.624.209.209 0 0 1 .03.107.21.21 0 0 1-.206.206m28.262-2.591a.214.214 0 0 1-.071-.014.207.207 0 0 1-.121-.263 15.379 15.379 0 0 0 .754-2.813.209.209 0 0 1 .236-.17.206.206 0 0 1 .173.205.132.132 0 0 1 0 .033 15.76 15.76 0 0 1-.773 2.887.211.211 0 0 1-.195.134m-30.206-2.501a.208.208 0 0 1-.2-.167 16.3 16.3 0 0 1-.288-2.975.205.205 0 0 1 .06-.146.2.2 0 0 1 .145-.063.205.205 0 0 1 .206.206 15.907 15.907 0 0 0 .28 2.9.235.235 0 0 1 0 .044.208.208 0 0 1-.167.2.192.192 0 0 1-.038.006m31.193-2.863a.2.2 0 0 1-.145-.06.207.207 0 0 1-.06-.145v-.129a15.519 15.519 0 0 0-.247-2.77v-.005a.214.214 0 0 1 0-.041.2.2 0 0 1 .17-.2.211.211 0 0 1 .239.167 16.154 16.154 0 0 1 .252 2.846v.132a.2.2 0 0 1-.206.2m-31.286-2.583h-.033a.209.209 0 0 1-.173-.206.115.115 0 0 1 0-.03 15.614 15.614 0 0 1 .74-2.9.208.208 0 0 1 .263-.126.205.205 0 0 1 .123.263 15.481 15.481 0 0 0-.721 2.822.206.206 0 0 1-.2.176m30.393-2.789a.2.2 0 0 1-.195-.137 15.509 15.509 0 0 0-1.226-2.64.217.217 0 0 1-.027-.107.2.2 0 0 1 .1-.176.215.215 0 0 1 .282.074 16.031 16.031 0 0 1 1.256 2.712.206.206 0 0 1-.123.263.2.2 0 0 1-.069.011m-28.624-2.363a.181.181 0 0 1-.1-.027.2.2 0 0 1-.107-.181.212.212 0 0 1 .027-.1 15.874 15.874 0 0 1 1.686-2.468.21.21 0 0 1 .288-.027.2.2 0 0 1 .074.14.2.2 0 0 1-.047.151 15.473 15.473 0 0 0-1.643 2.4.207.207 0 0 1-.178.1m25.945-2.377a.206.206 0 0 1-.159-.074 15.417 15.417 0 0 0-2.053-2.068.211.211 0 0 1-.025-.291.213.213 0 0 1 .291-.027 16.346 16.346 0 0 1 2.106 2.122.215.215 0 0 1 .044.151.2.2 0 0 1-.074.14.2.2 0 0 1-.129.047m-22.523-1.862a.207.207 0 0 1-.156-.071.211.211 0 0 1 .019-.291 16.209 16.209 0 0 1 2.424-1.749.213.213 0 0 1 .282.074.2.2 0 0 1-.074.28 15.616 15.616 0 0 0-2.361 1.705.2.2 0 0 1-.134.052m18.391-1.689a.24.24 0 0 1-.107-.027 15.388 15.388 0 0 0-2.629-1.251.208.208 0 0 1-.134-.192.224.224 0 0 1 .013-.071.209.209 0 0 1 .263-.121 15.918 15.918 0 0 1 2.7 1.281.205.205 0 0 1-.1.381m-13.735-1.138a.213.213 0 0 1-.195-.129.307.307 0 0 1-.014-.071.215.215 0 0 1 .132-.2 15.825 15.825 0 0 1 2.876-.814.205.205 0 0 1 .239.164.2.2 0 0 1-.033.153.207.207 0 0 1-.132.085 15.385 15.385 0 0 0-2.8.795.177.177 0 0 1-.074.014m8.64-.793a.171.171 0 0 1-.038 0 15.53 15.53 0 0 0-2.9-.271c-.126 0-.244 0-.357.006h-.015a.208.208 0 0 1-.206-.2.2.2 0 0 1 .058-.146.2.2 0 0 1 .145-.063c.115 0 .236-.006.365-.006a16.15 16.15 0 0 1 2.978.277.21.21 0 0 1 .132.088.207.207 0 0 1 .03.154.2.2 0 0 1-.2.167" transform="translate(-725.59 -169.616)" style="stroke:#144166;fill:#032541"/>
            <g style="filter:url(#2dsjt74yjb)">
                <path data-name="Path 65850" d="M0 0h37.3v15.631H0z" transform="translate(143.1 39.98)" style="fill:#fff"/>
            </g>
            <path data-name="Path 65746" d="m39.819 309.2 66.48-.131s1.493-4.365-4.006-3.724c-4.945.576-1.982-5.611-9.1-9.8-3.652-2.15-7.13-.252-10.076.738-3.981 1.338.2-1.571-3.5-5.97-1.383-1.645-4.065-.3-4.852-2.332a8.268 8.268 0 0 0-6.574-4.41c-13.4-.043-10.155 17.7-15.52 14.852C41.112 292.28 39.819 309.2 39.819 309.2" transform="translate(-31.877 -244.655)" style="fill-rule:evenodd;fill:#fff"/>
            <path data-name="Path 65748" d="M890.263 814.972s15.271-11.649 12.421-15.681-16.168 7.417-16.168 7.417z" transform="translate(-655.339 -623.771)" style="fill:#f4874c;fill-rule:evenodd"/>
            <path data-name="Path 65749" d="M893.6 742.713c1.959 0 4.663-1.168 3.246 3.907-1.623 5.811-7.816 16.947-11.6 12.721-4.951-5.534 3.085-16.627 8.352-16.627" transform="translate(-653.266 -582.658)" style="fill:#f4874c;fill-rule:evenodd"/>
            <path data-name="Path 65856" d="M20.84-2.752 49.043 0a22.449 22.449 0 0 1 22.449 22.449v96.409a22.451 22.451 0 0 1-22.451 22.451h-26.59A22.451 22.451 0 0 1 0 118.858V22.451C0 10.052 8.44-2.752 20.84-2.752z" transform="translate(166.582 99.124)" style="fill:#fff"/>
        </g>
        <g data-name="Group 77407">
            <g data-name="Group 77406" style="clip-path:url(#v0gra5xvnc)" transform="translate(248.582 123.934)">
                <path data-name="Path 65750" d="M713.009 653.246h-71.492V638.1h71.492zm0-128.921h-71.492v-12.388h71.492z" transform="translate(-641.517 -511.937)" style="fill:#003b55;fill-rule:evenodd"/>
            </g>
        </g>
        <g data-name="Group 77409">
            <g data-name="Group 77408" style="clip-path:url(#bcf3pyditd)" transform="translate(248.582 123.934)">
                <path data-name="Path 65858" d="M0 0h172.682v24.726H0z" transform="rotate(-70.31 92.605 84.32)" style="fill:#144166"/>
                <path data-name="Rectangle 28231" transform="rotate(-70.307 98.65 54.338)" style="fill:#144166" d="M0 0h141.44v14.417H0z"/>
                <path data-name="Rectangle 28232" transform="rotate(-70.306 122.931 49.97)" style="fill:#004f69" d="M0 0h42.805v14.417H0z"/>
                <path data-name="Rectangle 28233" transform="rotate(-70.307 143.025 116.687)" style="fill:#004f69" d="M0 0h141.44v8.876H0z"/>
                <path data-name="Rectangle 28234" transform="rotate(-70.306 25.405 35.057)" style="fill:#144166" d="M0 0h69.181v12.784H0z"/>
                <path data-name="Rectangle 28235" transform="rotate(-70.311 32.02 23.776)" style="fill:#144166" d="M0 0h69.181v3.223H0z"/>
            </g>
        </g>
        <g data-name="Group 77411">
            <g data-name="Group 77410" style="clip-path:url(#2eu8uxsfme)" transform="translate(248.582 123.934)">
                <path data-name="Path 65855" d="M0 0h42.7v37.245H0z" transform="translate(14.464 37.544)" style="fill:#dc3545"/>
                <path data-name="Rectangle 28237" transform="translate(14.397 78.838)" style="fill:#dadada" d="M0 0h42.698v2.594H0z"/>
                <path data-name="Rectangle 28238" transform="translate(14.397 83.122)" style="fill:#dadada" d="M0 0h21.349v2.594H0z"/>
                <path data-name="Rectangle 28239" transform="translate(64.434 37.544)" style="fill:#dc3545" d="M0 0h7.416v37.245H0z"/>
                <path data-name="Rectangle 28240" transform="translate(.037 37.544)" style="fill:#dc3545" d="M0 0h7.416v37.245H0z"/>
            </g>
        </g>
        <g data-name="Group 77422">
            <g data-name="Group 77421" style="clip-path:url(#d1qjbk4w2a)" transform="translate(82 24.809)">
                <g data-name="Group 77414" style="opacity:.12">
                    <g data-name="Group 77413">
                        <g data-name="Group 77412" style="clip-path:url(#smysp8m7ef)" transform="translate(191.488 143.52)">
                            <path data-name="Path 65752" d="M744.989 681.65c-5.023-7.29 1.113 17.269 7.882 29.973 2.476 4.648-6.4 13.344-1.027 22.64s8.641-4.582 11.522 6.677.786 17.414-1.571 22.258-16.1-17.676-18.068-18.985-11.129-6.284-6.416 4.583 6.939 17.544 10.474 21.472 43.4-1.406 43.4-1.406-39.287-77.19-46.192-87.212" transform="translate(-735.98 -680.324)" style="fill-rule:evenodd"/>
                        </g>
                    </g>
                </g>
            </g>
        </g>
        <g data-name="Group 77424">
            <g data-name="Group 77423" style="clip-path:url(#n71x4bgarg)" transform="translate(211.525 189.35)">
                <path data-name="Path 65753" d="M493.932 927.327s14.33-46.373 13.3-55.61c-1.3-11.669 3.007-52.4 8.561-66.708a240.2 240.2 0 0 0 10.1-33.807c.821-3.5-.974-9.964.363-10.78 4.333-2.644 10.127 9.5 8.2 20.609-1.939 11.175-1.609 29.624-1.609 29.624a37.624 37.624 0 0 1 9.775 21.385c.411 3.6.383 3.915.383 3.915l49.346-.007S580.479 862 572.964 876.809c-5.42 10.678-5.3 53.48-5.3 53.48z" transform="translate(-495.786 -760.055)" style="fill:#f8a871;fill-rule:evenodd"/>
                <path data-name="Path 65754" d="M691.452 1111.378s14.666-64.689 16.494-76.182c1.134-7.125-12.481-6.862-17.9-6.288a44.053 44.053 0 0 0-9.9 2.358l-.186-11.029 63.234-6.356-6.716 40.13-30.816 57.661h-14.2z" transform="translate(-632.764 -946.959)" style="fill:#f4874c;fill-rule:evenodd"/>
                <path data-name="Path 65755" d="M717.185 1068.206c.005-4.466-6.326-5.056-12.017-4.942-1.925.039-3.777.158-5.286.235-6.142.315-16.918 3.687-16.918 3.687s26.941-5.308 26.606 2.836c-.3 7.175-7.664 39.315-15.755 44.169-6.234 3.74-2.773 13.331-2.354 17.8.4 4.224 1.471 16.918 1.471 16.918s6.773 2.368 10.217-1.159c.633-.648.164-19.917.963-26.5 1.913-15.741 13.06-41.809 13.073-53.047" transform="translate(-634.98 -983.312)" style="fill:#f79c64;fill-rule:evenodd"/>
                <path data-name="Path 65756" d="M634.8 876.335s.575-.336-5.17-3.7c-4.182-2.449.133-10.461 1.055-15.8.643-3.726 2.963-21.578 2.475-2.315-.082 3.224 1.64 21.82 1.64 21.82" transform="translate(-594.387 -823.138)" style="fill:#f4874c;fill-rule:evenodd"/>
                <path data-name="Path 65757" d="M625.661 840.109c-.158 11.19-8.667 18.505-5.105 21.709 1.668 1.5-5.033-.279-4.405-5.688.617-5.318 4.616-12.926 5.073-15.575.643-3.726 4.709-19.712 4.438-.445" transform="translate(-585.751 -812.141)" style="fill:#f79c64;fill-rule:evenodd"/>
            </g>
        </g>
        <g data-name="Group 77426">
            <g data-name="Group 77425" style="clip-path:url(#dbzqlqvr0h)" transform="translate(219.824 189.35)">
                <path data-name="Path 65759" d="M611.57 769.891c.434 1.51.187 4.59 3.8 4.064 1.7-.247 1.938-2.048 1.123-4.228-.959-2.564-3.086-5.126-4.613-3.4-.617.7-.76 1.986-.307 3.563" transform="translate(-590.513 -764.26)" style="fill:#ffbb8c;fill-rule:evenodd"/>
            </g>
        </g>
        <g data-name="Group 77428">
            <g data-name="Group 77427" style="clip-path:url(#x4yz05lkyi)" transform="translate(241.478 190.856)">
                <path data-name="Path 65761" d="M617.476 788.988c-3.051.362-2.693 2.541.917 2.016 1.7-.247 3.243-2.509-.917-2.016" transform="translate(-615.191 -782.814)" style="fill:#ffd0b0;fill-rule:evenodd"/>
            </g>
        </g>
        <g data-name="Group 77430">
            <g data-name="Group 77429" style="clip-path:url(#n71x4bgarg)" transform="translate(211.525 189.35)">
                <path data-name="Path 65763" d="m670.715 1097.357-.687-.222c2.729-8.428 2.822-20.433 2.823-20.553h.722c0 .121-.095 12.236-2.858 20.771" transform="translate(-625.454 -993.128)" style="fill:#f4874c"/>
            </g>
        </g>
        <g data-name="Group 77432">
            <g data-name="Group 77431" style="clip-path:url(#d1qjbk4w2a)" transform="translate(82 24.809)">
                <path data-name="Path 65765" d="M884.711 870.708s18.827-26.229 9.413-32.563c-5.962-4.012-19.981 9.74-19.518 16.343.313 4.458 9.54-.445 9.54-.445z" transform="translate(-646.561 -652.484)" style="fill:#f79c64;fill-rule:evenodd"/>
            </g>
        </g>
        <g data-name="Group 77434">
            <g data-name="Group 77433" style="clip-path:url(#iskteto7dj)" transform="translate(310.034 209.749)">
                <path data-name="Path 65766" d="m878.76 898.368 11-6.366s-5.446 8.885 3.885 12.057c4.831 1.642-6.31 22.452-6.31 22.452l-10.892-19.325z" transform="translate(-875.953 -877.613)" style="fill:#f4874c;fill-rule:evenodd"/>
            </g>
        </g>
        <g data-name="Group 77436">
            <g data-name="Group 77482">
                <path data-name="Path 65768" d="M900.974 792.792c3.915 5.878 16.466-2.855 12.268-8.912-4.1-5.91-15.209 4.5-12.268 8.912" transform="translate(-583.625 -586.944)" style="stroke-width:.5px;stroke:#707070;fill:#f79c64;fill-rule:evenodd"/>
                <path data-name="Path 65769" d="M910.789 789.982c3.57 4.629 12.774-1.844 9.518-5.922-3.849-4.822-12.8 1.668-9.518 5.922" transform="translate(-590.69 -587.124)" style="stroke-width:.5px;stroke:#707070;fill:#f79c64;fill-rule:evenodd"/>
                <path data-name="Path 65770" d="M905.58 735.8c3.623 1.39 2.258 6.115.707 9.128-.584 1.136 1.363-2.377-1.068-.745-1.746 1.172-4.727 1.212-5.861.189-3.873-3.493 2.677-9.932 6.222-8.572" transform="translate(-581.922 -552.708)" style="stroke-width:.5px;stroke:#707070;fill:#f79c64;fill-rule:evenodd"/>
                <path data-name="Path 65771" d="M906.1 735.8c3.623 1.39 2.488 3.713-.013 5.892-.97.845-4.207 2.538-5.661 1.747-4.582-2.492 2.13-9 5.675-7.639" transform="translate(-582.441 -552.71)" style="stroke-width:.5px;stroke:#707070;fill:#f79c64;fill-rule:evenodd"/>
                <g data-name="Group 77481">
                    <path data-name="Path 65772" d="M168.152 366.669a6.306 6.306 0 1 0 0 12.613h100.47a6.306 6.306 0 1 0 0-12.613z" transform="translate(44.322 -335.398)" style="fill:#dfe8fa"/>
                </g>
                <path data-name="Path 65776" d="M716.18 588.736h-49.334a.206.206 0 0 1-.206-.206v-7.63a.206.206 0 0 1 .206-.206h49.334a.206.206 0 0 1 .206.206v7.633a.206.206 0 0 1-.206.206m-49.129-.411h48.923V581.1h-48.923z" transform="translate(-411.434 -438.631)" style="fill:#dcebf5;stroke-width:.5px;stroke:#707070"/>
                <path data-name="Path 65777" d="M732.97 706.182h-21.885a.179.179 0 0 1-.171-.127l-6-19.732a.178.178 0 0 1 .171-.23h33.894a.178.178 0 0 1 .171.23l-6 19.732a.178.178 0 0 1-.171.127m-21.754-.357h21.622l5.9-19.375h-33.426z" transform="translate(-439.608 -516.244)" style="stroke:#fff;stroke-width:.5px;fill:#fff"/>
                <path data-name="Path 65778" d="m758.719 771-10.87-.046a.225.225 0 0 1 0-.451l10.87.046a.225.225 0 0 1 0 .451" transform="translate(-471.066 -578.4)" style="stroke:#fdfdfd;stroke-width:.5px;fill:#fff"/>
                <path data-name="Path 65779" d="M751.576 702.79a1.656 1.656 0 1 1 1.635-1.738 2.186 2.186 0 0 0 2.089-1.559l7.123-23.417a.135.135 0 1 1 .259.079l-7.123 23.417a2.454 2.454 0 0 1-2.356 1.751 1.647 1.647 0 0 1-1.627 1.468m0-3.042a1.386 1.386 0 1 0 1.367 1.385 1.378 1.378 0 0 0-1.367-1.385M737.4 702.79a1.656 1.656 0 1 1 1.638-1.656 1.649 1.649 0 0 1-1.638 1.656m0-3.042a1.386 1.386 0 1 0 1.367 1.385 1.378 1.378 0 0 0-1.367-1.385" transform="translate(-462.336 -508.796)" style="stroke:#fff;stroke-width:.5px;fill:#fff"/>
                <path data-name="Path 65780" d="M839.417 675.756h-3.2a.411.411 0 0 1 0-.823h3.2a.411.411 0 0 1 0 .823" transform="translate(-535.996 -508.026)" style="stroke:#fff;stroke-width:.5px;fill:#fff"/>
                <path data-name="Path 65781" d="M735.324 706.259a.135.135 0 0 1-.135-.135v-10.47H724.81v10.471a.135.135 0 0 1-.271 0v-10.471h-8.667a.135.135 0 0 1 0-.271h8.667v-8.991a.135.135 0 0 1 .271 0v8.991h10.379v-8.991a.135.135 0 0 1 .271 0v8.991h8.711a.135.135 0 0 1 0 .271h-8.711v10.471a.135.135 0 0 1-.135.135" transform="translate(-447.587 -516.364)" style="stroke:#fff;stroke-width:.5px;fill:#fff"/>
                <path data-name="Rectangle 28252" transform="translate(308.257 142.266)" style="fill:#dcebf5;stroke-width:.5px;stroke:#707070" d="M0 0h7.632v7.632H0z"/>
                <path data-name="Path 65785" d="M1024.885 219.833a5.73 5.73 0 1 1-5.731 5.73 5.733 5.733 0 0 1 5.731-5.73" transform="translate(-671.007 -172.914)" style="fill:#17ae7b;fill-rule:evenodd"/>
                <path data-name="Path 65786" d="M569.651 427.694h-.027c-.082 0-.387 0-.85-.036a.2.2 0 0 1-.192-.208v-.011a.2.2 0 0 1 .214-.189h.019c.425.027.708.033.809.033h.027a.206.206 0 0 1 0 .411m-3.367-.365a.22.22 0 0 1-.039-.005 18.687 18.687 0 0 1-2.882-.8.2.2 0 0 1-.135-.192.2.2 0 0 1 .277-.192 18.434 18.434 0 0 0 2.819.776.206.206 0 0 1-.041.409m-5.139-1.84a.2.2 0 0 1-.1-.027 12.26 12.26 0 0 1-2.41-1.78.2.2 0 0 1-.008-.291.213.213 0 0 1 .291-.008 11.993 11.993 0 0 0 2.331 1.722.2.2 0 0 1 .077.28.206.206 0 0 1-.178.1m-3.968-3.688a.211.211 0 0 1-.176-.093 11.064 11.064 0 0 1-1.206-2.594l-.033-.11-.008-.022a.253.253 0 0 1-.008-.063.206.206 0 0 1 .146-.195.213.213 0 0 1 .258.137c.011.044.025.085.038.129a10.593 10.593 0 0 0 1.163 2.5.208.208 0 0 1 .027.156.193.193 0 0 1-.09.126.2.2 0 0 1-.11.033m-1.692-5.144a.206.206 0 0 1-.206-.189c-.038-.419-.057-.85-.057-1.283a14.732 14.732 0 0 1 .1-1.708.2.2 0 0 1 .409.025v.022a14.046 14.046 0 0 0-.1 1.661c0 .414.019.834.055 1.248a.206.206 0 0 1-.047.151.212.212 0 0 1-.14.071h-.016m.548-5.418a.215.215 0 0 1-.058-.008.221.221 0 0 1-.123-.1.207.207 0 0 1-.014-.156 12.774 12.774 0 0 1 1.19-2.753.214.214 0 0 1 .282-.074.209.209 0 0 1 .1.175.247.247 0 0 1-.028.107 12.33 12.33 0 0 0-1.154 2.662.2.2 0 0 1-.2.146m7.831-2.386a.208.208 0 0 1-.2-.148.226.226 0 0 1-.008-.06.205.205 0 0 1 .148-.195 3.049 3.049 0 0 0 2.095-1.678.207.207 0 0 1 .269-.107.192.192 0 0 1 .11.113.194.194 0 0 1 0 .156 3.518 3.518 0 0 1-2.358 1.911.209.209 0 0 1-.058.008m-2.482-.156a.216.216 0 0 1-.058-.008 14.773 14.773 0 0 1-2.769-1.143.2.2 0 0 1-.11-.178.237.237 0 0 1 .022-.1.214.214 0 0 1 .279-.088 14.245 14.245 0 0 0 2.69 1.113.205.205 0 0 1-.055.4m-2.676-2.183a.2.2 0 0 1-.14-.055.2.2 0 0 1-.066-.143.2.2 0 0 1 .055-.148 11.118 11.118 0 0 1 2.331-1.892.211.211 0 0 1 .283.069.2.2 0 0 1 .03.1.211.211 0 0 1-.1.178 10.741 10.741 0 0 0-2.243 1.821.2.2 0 0 1-.151.066m-2.221-.236a.216.216 0 0 1-.115-.033 29.537 29.537 0 0 1-2.388-1.78.2.2 0 0 1-.074-.159.2.2 0 0 1 .047-.129.207.207 0 0 1 .288-.027 29.276 29.276 0 0 0 2.365 1.765.21.21 0 0 1 .088.132.207.207 0 0 1-.033.154.2.2 0 0 1-.17.09m9.4-1.629a.209.209 0 0 1-.17-.09 2.157 2.157 0 0 0-1.856-.963 2.975 2.975 0 0 0-.532.05.206.206 0 0 1-.239-.164.2.2 0 0 1 .033-.154.206.206 0 0 1 .132-.085 3.274 3.274 0 0 1 .606-.058h.005a2.565 2.565 0 0 1 2.194 1.146.189.189 0 0 1 .033.115.2.2 0 0 1-.091.167.191.191 0 0 1-.115.036m-13.647-1.818a.2.2 0 0 1-.145-.057c-.719-.7-1.4-1.428-2.032-2.174a.2.2 0 0 1 .025-.291.209.209 0 0 1 .288.025c.628.741 1.3 1.464 2.007 2.144a.221.221 0 0 1 .063.145.2.2 0 0 1-.06.145.2.2 0 0 1-.145.063m-3.562-4.154a.205.205 0 0 1-.167-.088 25.277 25.277 0 0 1-1.568-2.534.183.183 0 0 1-.025-.1.2.2 0 0 1 .107-.181.21.21 0 0 1 .28.085 24.466 24.466 0 0 0 1.544 2.493.209.209 0 0 1-.052.288.192.192 0 0 1-.118.036m-2.621-4.8a.21.21 0 0 1-.192-.129 19.492 19.492 0 0 1-.885-2.852.194.194 0 0 1-.006-.041.206.206 0 0 1 .406-.049 18.819 18.819 0 0 0 .869 2.788.209.209 0 0 1 0 .157.216.216 0 0 1-.113.112.237.237 0 0 1-.077.014m-1.253-5.306a.209.209 0 0 1-.206-.192c-.03-.408-.044-.823-.044-1.228a16.3 16.3 0 0 1 .093-1.758.208.208 0 0 1 .228-.184.205.205 0 0 1 .184.206v.022a15.523 15.523 0 0 0-.093 1.714c0 .4.014.8.044 1.2a.205.205 0 0 1-.189.219.032.032 0 0 1-.016 0m.518-5.424a.207.207 0 0 1-.055-.008.2.2 0 0 1-.123-.1.206.206 0 0 1-.019-.156 17.786 17.786 0 0 1 1.026-2.805.212.212 0 0 1 .274-.1.2.2 0 0 1 .118.184.188.188 0 0 1-.016.088 17.054 17.054 0 0 0-1 2.742.209.209 0 0 1-.2.151m2.218-4.985a.22.22 0 0 1-.107-.03.213.213 0 0 1-.093-.129.2.2 0 0 1 .027-.153 21.2 21.2 0 0 1 1.739-2.419.207.207 0 0 1 .288-.025.2.2 0 0 1 .074.156.2.2 0 0 1-.047.132 20.569 20.569 0 0 0-1.708 2.375.2.2 0 0 1-.173.1m3.458-4.22a.2.2 0 0 1-.151-.066.208.208 0 0 1 .011-.291 18.907 18.907 0 0 1 2.355-1.835.212.212 0 0 1 .282.06.217.217 0 0 1 .033.115.2.2 0 0 1-.093.17 18.119 18.119 0 0 0-2.3 1.8.214.214 0 0 1-.14.052m28.169-.532a.2.2 0 0 1-.129-.046 14.413 14.413 0 0 0-2.443-1.582.2.2 0 0 1-.1-.121.209.209 0 0 1 .014-.156.214.214 0 0 1 .28-.088 14.926 14.926 0 0 1 2.509 1.629.208.208 0 0 1 .027.291.2.2 0 0 1-.159.074m-23.655-2.515a.205.205 0 0 1-.184-.118.2.2 0 0 1-.008-.156.2.2 0 0 1 .1-.118 19.936 19.936 0 0 1 2.789-1.067.21.21 0 0 1 .255.14.236.236 0 0 1 .008.06.2.2 0 0 1-.145.195 19.011 19.011 0 0 0-2.728 1.045.212.212 0 0 1-.091.019m18.876-.129a.236.236 0 0 1-.074-.013 25.728 25.728 0 0 0-2.791-.905.2.2 0 0 1-.123-.1.2.2 0 0 1 .23-.3 26.252 26.252 0 0 1 2.833.919.2.2 0 0 1 .132.195.205.205 0 0 1-.206.2m-5.273-1.445a.125.125 0 0 1-.033 0 .025.025 0 0 1-.014 0 27.615 27.615 0 0 0-2.9-.329.2.2 0 0 1-.142-.069.2.2 0 0 1-.052-.148.206.206 0 0 1 .217-.195 27.982 27.982 0 0 1 2.959.337h.006a.2.2 0 0 1 .167.2v.033a.206.206 0 0 1-.2.17m-8.391-.052a.206.206 0 0 1-.036-.408 24.352 24.352 0 0 1 2.964-.31.21.21 0 0 1 .214.2v.011a.205.205 0 0 1-.2.2 23.434 23.434 0 0 0-2.912.3.14.14 0 0 1-.033 0" transform="translate(-321.534 -282.427)" style="fill:#474747;stroke-width:.5px;stroke:#707070"/>
                <path data-name="Path 65787" d="M813.588 530.537a1.383 1.383 0 1 1-1.383 1.383 1.384 1.384 0 0 1 1.383-1.383" transform="translate(-518.62 -401.7)" style="stroke:red;stroke-width:.5px;fill-rule:evenodd;fill:#fff"/>
                <path data-name="Rectangle 28253" transform="translate(274.048 130.077)" style="stroke:#fff;stroke-width:.5px;fill:#fff" d="M0 0h16.043v.294H0z"/>
                <path data-name="Path 65789" d="M764.291 1013.495h-12.05a2.52 2.52 0 0 1 0-5.04h12.05a2.52 2.52 0 0 1 0 5.04m-12.05-4.769a2.249 2.249 0 0 0 0 4.5h12.05a2.252 2.252 0 0 0 2.249-2.249 2.252 2.252 0 0 0-2.249-2.249z" transform="translate(-472.611 -753.613)" style="stroke-width:.5px;stroke:#707070;fill:#fff"/>
                <path data-name="Path 65790" d="M886.262 871.417c1.79 1.636 1.18 3.662-3.112 6.3-3.91 2.4-5.63.788-2.9-3.627 1.614-2.612 4.682-3.893 6.015-2.674" transform="translate(-567.745 -652.365)" style="stroke-width:.5px;stroke:#707070;fill:#ffbb8c;fill-rule:evenodd"/>
            </g>
        </g>
        <g data-name="Group 77438">
            <g data-name="Group 77437" style="clip-path:url(#ydam3y291k)" transform="translate(311.174 218.59)">
                <path data-name="Path 65791" d="M898.589 860.37c-1.79-1.636-1.18-3.661 3.113-6.3 3.91-2.4 5.63-.789 2.9 3.626-1.614 2.612-4.683 3.893-6.015 2.675" transform="translate(-892.708 -857.701)" style="fill:#ffd0b0;fill-rule:evenodd"/>
            </g>
        </g>
        <g data-name="Group 77440">
            <g data-name="Group 77439" style="clip-path:url(#d1qjbk4w2a)" transform="translate(82 24.809)">
                <path data-name="Path 65793" d="M913.715 795.258c.852 3.492-4.089 5.979-5.943 4.2-2.476-2.377 4.6-9.687 5.943-4.2" transform="translate(-670.607 -619.965)" style="fill:#f8a871;fill-rule:evenodd"/>
            </g>
        </g>
        <g data-name="Group 77442">
            <g data-name="Group 77441" style="clip-path:url(#aaz640qosl)" transform="translate(318.644 198.106)">
                <path data-name="Path 65794" d="M923.186 786.568c3.126 3.241-2.418 5.81-4.83 3.122-2.341-2.609 2.1-5.948 4.83-3.122" transform="translate(-914.943 -787.54)" style="fill:#ffbb8c;fill-rule:evenodd"/>
            </g>
        </g>
        <g data-name="Group 77444">
            <g data-name="Group 77443" style="clip-path:url(#d1qjbk4w2a)" transform="translate(82 24.809)">
                <path data-name="Path 65796" d="M908.517 744.428c1.594 2.459-1.99 4.235-3.939 2.545-3.529-3.058 1.884-5.717 3.939-2.545" transform="translate(-667.78 -582.953)" style="fill:#f8a871;fill-rule:evenodd"/>
            </g>
        </g>
        <g data-name="Group 77446">
            <g data-name="Group 77445" style="clip-path:url(#0igi4ok79m)" transform="translate(317.632 184.854)">
                <path data-name="Path 65797" d="M915.779 736.791c2.549 2.643-1.972 4.739-3.939 2.546-1.909-2.127 1.716-4.85 3.939-2.546" transform="translate(-909.222 -737.781)" style="fill:#ffbb8c;fill-rule:evenodd"/>
            </g>
        </g>
        <g data-name="Group 77451">
            <g data-name="Group 77450" style="clip-path:url(#d1qjbk4w2a)" transform="translate(82 24.809)">
                <path data-name="Path 65810" d="m1031.076 237.147-2.95-3.346.541-.477 2.633 2.987 3.335-5.228.608.388-3.593 5.632z" transform="translate(-759.613 -206.007)" style="fill:#fff"/>
                <g data-name="Group 77449" style="opacity:.12">
                    <g data-name="Group 77448">
                        <g data-name="Group 77447" style="clip-path:url(#2sc4j97k5n)" transform="translate(171.192 50.62)">
                            <path data-name="Rectangle 28260" d="M0 2.755 78.817 0l1.564 44.754-78.817 2.755z"/>
                        </g>
                    </g>
                </g>
                <path data-name="Path 65849" d="M0 0h78.864v44.781H0z" transform="rotate(-2.002 1502.138 -4977.535)" style="fill:#dc3545"/>
                <path data-name="Path 65811" d="M814.941 356.7a1.546 1.546 0 1 1 1.491-1.6 1.548 1.548 0 0 1-1.491 1.6m-.089-2.549a1 1 0 1 0 1.039.969 1.006 1.006 0 0 0-1.039-.969m-5.57 2.747a1.546 1.546 0 1 1 1.49-1.6 1.548 1.548 0 0 1-1.49 1.6m-.089-2.549a1 1 0 1 0 1.039.969 1.006 1.006 0 0 0-1.039-.969m-5.391 2.741a1.546 1.546 0 1 1 1.491-1.6 1.548 1.548 0 0 1-1.491 1.6m-.089-2.549a1 1 0 1 0 1.039.969 1.005 1.005 0 0 0-1.039-.969" transform="translate(-593.254 -296.228)" style="fill:#f8bebe"/>
                <path data-name="Rectangle 28263" transform="rotate(-2.122 1887.477 -5609.023)" style="fill:#f8bebe" d="M0 0h38.703v.541H0z"/>
                <path data-name="Rectangle 28264" transform="rotate(-2.122 2047.353 -5611.653)" style="fill:#f8bebe" d="M0 0h38.703v.541H0z"/>
                <path data-name="Rectangle 28265" transform="rotate(-2.122 2207.229 -5614.282)" style="fill:#f8bebe" d="M0 0h38.703v.541H0z"/>
                <path data-name="Rectangle 28266" transform="rotate(-2.122 2367.132 -5616.911)" style="fill:#f8bebe" d="M0 0h38.703v.541H0z"/>
                <path data-name="Path 65812" d="M707.048 364.017a11.6 11.6 0 1 1-11.189 12 11.606 11.606 0 0 1 11.189-12" transform="translate(-514.944 -303.887)" style="fill-rule:evenodd;fill:#fff"/>
                <path data-name="Path 65813" d="M762.662 339.515a.531.531 0 0 0-.234-.8l-1.1-.438a.531.531 0 0 0-.725.462l-.052.879a.888.888 0 0 0 .6.892.913.913 0 0 0 1.036-.328l.481-.663" transform="translate(-562.581 -284.908)" style="fill-rule:evenodd;fill:#fff"/>
                <path data-name="Path 65814" d="m713.37 346.765.529-1.535a2.46 2.46 0 0 1 3.127-1.524 2.46 2.46 0 0 1 1.524 3.127l-.608 1.765a6.594 6.594 0 0 1 1.671 6.91l-6.631 19.245a2.3 2.3 0 0 1-2.919 1.423l-8.125-2.8a2.3 2.3 0 0 1-1.423-2.919l6.631-19.245a6.6 6.6 0 0 1 6.224-4.447" transform="translate(-518.284 -288.838)" style="fill-rule:evenodd;fill:#fff"/>
            </g>
        </g>
        <g data-name="Group 77453">
            <g data-name="Group 77452" style="clip-path:url(#r8zpph9sro)" transform="translate(264.104 79.543)">
                <path data-name="Path 65852" d="M0 0h16.422v22.545H0z" transform="rotate(-71.093 6.497 2.043)" style="fill:#f8bebe"/>
                <path data-name="Rectangle 28269" transform="rotate(-69.584 7.283 -8.385)" style="fill:#fff" d="M0 0h.271v6.908H0z"/>
            </g>
        </g>
        <g data-name="Group 77455">
            <g data-name="Group 77454" transform="translate(81 24.809)" style="clip-path:url(#d1qjbk4w2a)">
                <path data-name="Path 65816" d="M766.778 378.794c.237.074.328.46.2.862s-.419.668-.656.594-.328-.46-.2-.862.419-.668.656-.594" transform="translate(-566.645 -314.765)" style="fill:rgba(3,37,65,.4);fill-rule:evenodd"/>
                <path data-name="Path 65817" d="M706.126 395.938a3.805 3.805 0 0 1-1.712-.341l-.117-.053a3.811 3.811 0 0 1-1.305-5.958l2.466-2.858.2.177-2.466 2.858a3.54 3.54 0 0 0 1.212 5.534l.117.053a3.54 3.54 0 0 0 4.222-1l10.573-13.087.211.17-10.574 13.087a3.808 3.808 0 0 1-2.832 1.414" transform="translate(-519.521 -316.595)" style="fill:rgba(3,37,65,.4)"/>
                <path data-name="Path 65823" d="m1065.305 705.511-.929-1.278a1.468 1.468 0 1 1 .108-.072l.926 1.274zm-1.686-3.869a1.337 1.337 0 1 0 1.336 1.337 1.338 1.338 0 0 0-1.336-1.337" transform="translate(-885.689 -582.254)" style="fill:gray"/>
                <path data-name="Path 65833" d="M580.424 308.417a1.526 1.526 0 0 0 .655 1.174 2.494 2.494 0 0 0 1.531.455 2.285 2.285 0 0 0 1.468-.455 1.4 1.4 0 0 0 .567-1.145 1.127 1.127 0 0 0-.4-.9 3.2 3.2 0 0 0-1.287-.568l-.837-.205a3.358 3.358 0 0 1-1.438-.665 1.4 1.4 0 0 1-.46-1.081 1.677 1.677 0 0 1 .675-1.36 2.538 2.538 0 0 1 1.639-.533 2.659 2.659 0 0 1 1.668.518 1.687 1.687 0 0 1 .7 1.3h-.387a1.362 1.362 0 0 0-.6-1.047 2.283 2.283 0 0 0-1.394-.416 2.106 2.106 0 0 0-1.35.431 1.336 1.336 0 0 0-.558 1.1 1.062 1.062 0 0 0 .4.856 3.239 3.239 0 0 0 1.252.538l.788.2a3.532 3.532 0 0 1 1.5.675 1.439 1.439 0 0 1 .475 1.125 1.766 1.766 0 0 1-.675 1.433 2.755 2.755 0 0 1-1.786.553 2.812 2.812 0 0 1-1.79-.553 1.86 1.86 0 0 1-.754-1.433z" transform="translate(-429.664 -259.065)" style="fill:#545454"/>
                <path data-name="Path 65834" d="M604.938 308.233h-3.175l-.876 2.353h-.421l2.691-7.06h.391l2.686 7.06h-.416zm-3.048-.347h2.926l-1.453-3.855h-.025z" transform="translate(-444.707 -259.351)" style="fill:#545454"/>
                <path data-name="Path 65835" d="M629.2 310.587h-4.09v-7.06h.386v6.7h3.7z" transform="translate(-462.853 -259.351)" style="fill:#545454"/>
                <path data-name="Path 65836" d="M648.224 310.587h-4.114v-7.06h4.114v.357H644.5v2.906h3.552v.352H644.5v3.087h3.728z" transform="translate(-476.844 -259.351)" style="fill:#545454"/>
            </g>
        </g>
        <g data-name="Group 77457">
            <g data-name="Group 77456" style="clip-path:url(#jvyj0g0t3p)" transform="translate(266.054 157.442)">
                <path data-name="Path 65837" d="M798.7 798.393c-.283 1.323.211 7.965.709 10.466a2.664 2.664 0 0 0 4.489 1.706c1.664-1.358.158-7.8 1.331-12.138s6.087.069 6.087.069l-13.424-13.834s-8.175 2.96-9.2 8.1.153 7.924-.006 10.087a47.58 47.58 0 0 0 .316 6.36s2.66.955 3.721-.677 1.943-9.241 2.747-11.048 3.81-3.2 5.46-3.477a20.019 20.019 0 0 1 3.99-.1s1.261-.208-1.789.534-4.151 2.629-4.434 3.952" transform="translate(-767.052 -746.267)" style="fill:#f4874c;fill-rule:evenodd"/>
            </g>
        </g>
        <g data-name="Group 77459">
            <g data-name="Group 77458" style="clip-path:url(#5royo5cv6q)" transform="translate(280.639 168.35)">
                <path data-name="Path 65838" d="M830.315 872.348s-12-39.657-21.517-49.435-26.561-37.576-31.315-48.2-11.3-23.239-13.508-27.947c-1.445-3.081-1.559-9.1 5.988-2.551 6.153 5.34 12.714 18.993 18.256 21.481s7.425 1.343 8.344-1.107c2.082-5.552-5.135-22.9-6.893-25.992s-9.418-25.027-12.763-29.242-12.084-20.121-12.084-20.121-2.5-5.1-1.472-8.269 9.661 7.923 10.953 9.806c.924 1.348 10.238 10.039 17.313 17.661 2.811 3.028 4.773-.663 10.132 2.8a32.378 32.378 0 0 0 4.575 2.726s8.413.193 12.378 4.306 3.211 4.294 3.211 4.294 1.055-1.607 4.535 1.148 19.089 19.9 19.089 19.9 17.7 42.629 17.409 52.531 12.425 31.276 20.587 45.78 29.092 65.4 29.092 65.4l-71.5 5.815z" transform="translate(-763.102 -680.402)" style="fill:#f8a871;fill-rule:evenodd"/>
                <path data-name="Path 65839" d="M839.161 1105.409s24.9 29.845 38.14 45.232c8.762 10.187 29.064 73.3 29.064 73.3l-22.759 2.032z" transform="translate(-819.108 -993.354)" style="fill:#f79c64;fill-rule:evenodd"/>
                <path data-name="Path 65840" d="M910.482 1196.2s15.958 17.654 20.251 25.332c1.7 3.046 7.959 19.314 8.288 22.184 1.579 13.784 8.68 48.1 8.68 48.1l-20.254 4.119z" transform="translate(-871.625 -1060.207)" style="fill:#f4874c;fill-rule:evenodd"/>
                <path data-name="Path 65841" d="M918.839 822.77c-.913-1.566-16.437-22.788-16.594-23l.583-.426c.64.876 15.7 21.466 16.634 23.065zm-15.648-8.36c-.913-1.566-16.437-22.788-16.594-23l.583-.426c.641.876 15.7 21.467 16.635 23.065zm-13.137-4.461c-.914-1.566-16.437-22.788-16.594-23l.583-.426c.641.876 15.7 21.466 16.635 23.065z" transform="translate(-844.363 -758.542)" style="fill:#f4874c"/>
            </g>
        </g>
        <g data-name="Group 77461">
            <g data-name="Group 77460" style="clip-path:url(#ogzrzcfkvr)" transform="translate(281.91 168.887)">
                <path data-name="Path 65843" d="M770.179 681.9c-2.422-.4-2.953 2.287-1.289 4.492s3.277 3.369 5.365.582c1.309-1.747-2.329-4.783-4.076-5.074" transform="translate(-767.927 -682.015)" style="fill:#ffbb8c;fill-rule:evenodd"/>
                <path data-name="Path 65844" d="M784.308 701.69c2.422.4 2.953-2.287 1.289-4.491s-3.277-3.369-5.365-.583c-1.308 1.747 2.329 4.783 4.076 5.074" transform="translate(-776.783 -691.674)" style="fill:#ffd0b0;fill-rule:evenodd"/>
            </g>
        </g>
        <g data-name="Group 77463">
            <g data-name="Group 77462" style="clip-path:url(#fkv4tbu1ms)" transform="translate(281.352 230.831)">
                <path data-name="Path 65846" d="M770.538 925.715c2.427-.365 2.175-1.79.375-4.862s-5.351-4.731-5.09-2.305 2.345 7.524 4.715 7.167" transform="translate(-765.809 -917.384)" style="fill:#ffbb8c;fill-rule:evenodd"/>
                <path data-name="Path 65847" d="M777.991 937.469c-2.365.656-1.942 2.04.216 4.872s5.884 4.049 5.331 1.673-3.237-7.185-5.547-6.544" transform="translate(-773.603 -932.131)" style="fill:#ffd0b0;fill-rule:evenodd"/>
            </g>
        </g>
        <g data-name="Group 77469">
            <path data-name="Rectangle 28079" transform="translate(18.093 161.828)" style="fill:#fff" d="M0 0h89.526v82.922H0z"/>
            <g data-name="Group 77484">
                <path data-name="Path 65254" d="M1794.966 599.641a10.161 10.161 0 0 1-5.173 8.787 10.981 10.981 0 0 1-10.921 0 10.16 10.16 0 0 1-5.172-8.787 10.641 10.641 0 0 1 21.267 0" transform="translate(-1721.991 -419.365)" style="fill:#dc3545"/>
                <path data-name="Path 65255" d="M1809.645 622.5a2.746 2.746 0 1 1-2.744-2.643 2.695 2.695 0 0 1 2.744 2.643" transform="translate(-1744.559 -442.224)" style="fill:#fff"/>
                <path data-name="Path 65256" d="M1804.54 647.654c0 .179-.01.354-.028.529a10.984 10.984 0 0 1-10.921 0 5.271 5.271 0 0 1-.028-.529 5.492 5.492 0 0 1 10.976 0" transform="translate(-1736.71 -458.119)" style="fill:#fff"/>
                <path data-name="Rectangle 28081" transform="translate(38.674 197.455)" style="fill:#e5edf1" d="M0 0h49.393v5.947H0z"/>
                <path data-name="Rectangle 28082" transform="translate(38.674 210.67)" style="fill:#e5edf1" d="M0 0h49.393v5.947H0z"/>
                <path data-name="Rectangle 28083" transform="translate(48.887 223.223)" style="fill:#e5edf1" d="M0 0h28.281v8.107H0z"/>
            </g>
        </g>
        <g data-name="Group 77471">
            <path data-name="Path 65260" d="M326.548 502.913v6.243a1.064 1.064 0 0 0 1.934.568l4.144-5.936a1.014 1.014 0 0 0-.8-1.583l-4.144-.307a1.042 1.042 0 0 0-1.138 1.015" transform="translate(-175.783 -311.972)" style="fill:#dfe8fa"/>
            <path data-name="Path 65261" d="M331.548 502.913v6.243a1.064 1.064 0 0 0 1.934.568l4.144-5.936a1.014 1.014 0 0 0-.8-1.583l-4.144-.307a1.042 1.042 0 0 0-1.138 1.015" transform="translate(-179.874 -311.972)" style="fill:#fff"/>
            <path data-name="Path 65262" d="M325.75 372.6h-40.41a3.723 3.723 0 0 1-3.791-3.651v-23.867a3.723 3.723 0 0 1 3.791-3.651h40.41a3.723 3.723 0 0 1 3.791 3.651v23.863a3.723 3.723 0 0 1-3.791 3.651" transform="translate(-138.964 -179.603)" style="fill:#dfe8fa"/>
            <path data-name="Path 65263" d="M342.75 372.6h-40.41a3.723 3.723 0 0 1-3.791-3.651v-23.867a3.723 3.723 0 0 1 3.791-3.651h40.41a3.723 3.723 0 0 1 3.791 3.651v23.863a3.723 3.723 0 0 1-3.791 3.651" transform="translate(-152.874 -179.603)" style="fill:#fff"/>
            <path data-name="Rectangle 28084" transform="translate(156.946 170.233)" style="fill:#dfe8fa" d="M0 0h26.359v2.101H0z"/>
            <path data-name="Rectangle 28085" transform="translate(156.946 175.31)" style="fill:#dfe8fa" d="M0 0h26.359v2.101H0z"/>
            <path data-name="Rectangle 28086" transform="translate(156.946 180.913)" style="fill:#dfe8fa" d="M0 0h26.359v2.101H0z"/>
        </g>
        <g data-name="Group 77478">
            <g data-name="Group 77476">
                <path data-name="Path 65248" d="M582.455 674.049h-90.639a5.174 5.174 0 0 1-5.268-5.074v-82.446a5.174 5.174 0 0 1 5.268-5.074h90.639a5.174 5.174 0 0 1 5.268 5.074v82.446a5.174 5.174 0 0 1-5.268 5.074" transform="translate(-102.675 -512.183)" style="fill:#879ab0"/>
                <path data-name="Path 65249" d="M593.049 674.049H502.41a5.174 5.174 0 0 1-5.268-5.074v-82.446a5.174 5.174 0 0 1 5.268-5.074h90.639a5.174 5.174 0 0 1 5.268 5.074v82.446a5.174 5.174 0 0 1-5.268 5.074" transform="translate(-109.91 -512.183)" style="fill:#144166"/>
                <path data-name="Path 65250" d="M641.915 655.373h-1.26v-9.7a13.864 13.864 0 0 0-27.708 0v9.7h-1.259v-9.7c0-8.027 6.78-14.557 15.113-14.557s15.113 6.53 15.113 14.557z" transform="translate(-188.142 -546.679)" style="fill:#dfe8fa"/>
                <path data-name="Path 65251" d="M631.765 732.537h-36.154a3.068 3.068 0 0 1-3.124-3.009v-31.182a3.068 3.068 0 0 1 3.124-3.008h36.154a3.068 3.068 0 0 1 3.124 3.008v31.182a3.068 3.068 0 0 1-3.124 3.009" transform="translate(-175.029 -591.294)" style="fill:#dfe8fa"/>
                <path data-name="Path 65252" d="M653.722 748.266a5.461 5.461 0 0 0-10.915 0 5.259 5.259 0 0 0 3.359 4.852v2.426a2.1 2.1 0 0 0 4.2 0v-2.426a5.259 5.259 0 0 0 3.359-4.852" transform="translate(-209.396 -624.41)" style="fill:rgba(3,37,65,.4)"/>
                <path data-name="Path 65253" d="M603.864 736.783h-.309a.467.467 0 0 1-.476-.458V722.28a.467.467 0 0 1 .476-.458h.309a.467.467 0 0 1 .475.458v14.045a.467.467 0 0 1-.475.458" transform="translate(-182.264 -609.692)" style="fill:#fff"/>
            </g>
            <g data-name="Group 77475">
                <path data-name="Rectangle 28087" style="fill:#dfe8fa" d="M0 0h78.305v88.854H0z" transform="translate(406.931 196.072)"/>
                <path data-name="Rectangle 28088" transform="translate(410.102 196.072)" style="fill:#fff" d="M0 0h78.305v88.854H0z"/>
                <path data-name="Rectangle 28089" transform="translate(418.978 208.897)" style="fill:#dfe8fa" d="M0 0h22.826v21.985H0z"/>
                <path data-name="Rectangle 28090" transform="translate(418.978 266.911)" style="fill:#dfe8fa" d="M0 0h60.552v1.527H0z"/>
                <path data-name="Rectangle 28091" transform="translate(418.978 261.112)" style="fill:#dfe8fa" d="M0 0h60.552v1.527H0z"/>
                <path data-name="Rectangle 28092" transform="translate(418.978 255.31)" style="fill:#dfe8fa" d="M0 0h60.552v1.527H0z"/>
                <path data-name="Rectangle 28093" transform="translate(418.978 249.508)" style="fill:#dfe8fa" d="M0 0h60.552v1.527H0z"/>
                <path data-name="Rectangle 28094" transform="translate(418.978 243.707)" style="fill:#dfe8fa" d="M0 0h60.552v1.527H0z"/>
                <path data-name="Rectangle 28095" transform="translate(418.978 237.905)" style="fill:#dfe8fa" d="M0 0h60.552v1.527H0z"/>
                <path data-name="Rectangle 28096" transform="translate(446.559 232.103)" style="fill:#dfe8fa" d="M0 0h32.971v1.527H0z"/>
                <path data-name="Rectangle 28097" transform="translate(446.559 226.302)" style="fill:#dfe8fa" d="M0 0h32.971v1.527H0z"/>
                <path data-name="Rectangle 28098" transform="translate(446.559 220.5)" style="fill:#dfe8fa" d="M0 0h32.971v1.527H0z"/>
                <path data-name="Rectangle 28099" transform="translate(446.559 214.698)" style="fill:#dfe8fa" d="M0 0h32.971v1.527H0z"/>
                <path data-name="Rectangle 28100" transform="translate(446.559 208.897)" style="fill:#dfe8fa" d="M0 0h32.971v1.527H0z"/>
            </g>
            <g data-name="Group 77474">
                <path data-name="Path 65266" d="M306.939 691.835c0 9.612-8.091 17.4-18.071 17.4s-18.07-7.792-18.07-17.4 8.09-17.4 18.07-17.4 18.071 7.792 18.071 17.4" transform="translate(104.467 -558.861)" style="fill:#dc3545"/>
                <path data-name="Path 65267" d="M319.653 708.19h-1.083v-1.364a4.048 4.048 0 0 0-8.09 0v1.364h-.68a1.121 1.121 0 0 0-1.142 1.1v9.487a1.122 1.122 0 0 0 1.142 1.1h9.85a1.122 1.122 0 0 0 1.142-1.1v-9.487a1.121 1.121 0 0 0-1.142-1.1m-8.363-1.364a3.238 3.238 0 0 1 6.472 0v1.364h-6.469z" transform="translate(78.607 -578.658)" style="fill:#fff"/>
                <path data-name="Path 65268" d="M326.584 737.652a1.269 1.269 0 0 0-2.536 0 1.215 1.215 0 0 0 .7 1.089l-.126 1.56a.382.382 0 0 0 .389.4h.6a.382.382 0 0 0 .389-.4l-.126-1.56a1.215 1.215 0 0 0 .7-1.089" transform="translate(68.098 -601.931)" style="fill:#dc3545"/>
            </g>
        </g>
        <g data-name="Group 77477">
            <path data-name="Path 65266" d="M300.327 688.651a14.775 14.775 0 1 1-14.765-14.22 14.5 14.5 0 0 1 14.765 14.22" transform="translate(-142.977 -624.379)" style="fill:#dc3545"/>
            <path data-name="Path 65267" d="M317.642 707.227h-.885v-1.114a3.307 3.307 0 0 0-6.61 0v1.114h-.554a.916.916 0 0 0-.933.9v7.752a.916.916 0 0 0 .933.9h8.048a.916.916 0 0 0 .933-.9v-7.752a.916.916 0 0 0-.933-.9m-6.833-1.114a2.646 2.646 0 0 1 5.288 0v1.114h-5.288z" transform="translate(-171.033 -645.767)" style="fill:#fff"/>
            <path data-name="Path 65268" d="M326.12 737.429a1.037 1.037 0 0 0-2.072 0 .992.992 0 0 0 .576.89l-.1 1.274a.312.312 0 0 0 .318.331h.492a.312.312 0 0 0 .318-.331l-.1-1.274a.992.992 0 0 0 .576-.89" transform="translate(-182.434 -670.912)" style="fill:#dc3545"/>
        </g>
    </g>
</svg>
